<?xml version="1.0" encoding="utf-8"?>
<!-- Generator: Adobe Illustrator 24.1.0, SVG Export Plug-In . SVG Version: 6.00 Build 0)  -->
<svg version="1.1" id="Layer_4" xmlns="http://www.w3.org/2000/svg" xmlns:xlink="http://www.w3.org/1999/xlink" x="0px" y="0px"
	 viewBox="0 0 601.33 559.78" style="enable-background:new 0 0 601.33 559.78;" xml:space="preserve">
<style type="text/css">
	.st0{fill:none;stroke:#A159FF;stroke-width:40;stroke-miterlimit:10;}
	.st1{fill:none;stroke:#FFFFFF;stroke-width:5;stroke-miterlimit:10;}
	.st2{fill:none;stroke:#FF00FF;stroke-width:40;stroke-miterlimit:10;}
	.st3{fill:none;stroke:#FFFFFF;stroke-width:40;stroke-miterlimit:10;}
	.st4{fill:none;stroke:#FFFFFF;stroke-width:14;stroke-miterlimit:10;}
</style>
<path class="st0" d="M356.84,555.09C322.77,281.65,263.73,80.91,205.66,80.78c-58.23-0.13-118.39,201.5-153.49,477.77"/>
<path class="st1" d="M254.45,497.28"/>
<path class="st2" d="M620.81,550.99c-37.89-18.3-66.25-36.01-84.17-47.99c-87.87-58.73-127.21-114.97-206.56-122.73
	c-7.67-0.75-13.89-0.87-17.42-0.88"/>
<path class="st2" d="M20.81,550.99c35.96-18.3,62.88-36.01,79.9-47.99c83.4-58.73,120.74-114.97,196.06-122.73
	c7.28-0.75,13.19-0.87,16.53-0.88"/>
<g>
	<polyline class="st3" points="19,-12 19,540.78 613.33,540.78 	"/>
	<polyline class="st4" points="19,-12 19,540.78 613.33,540.78 	"/>
</g>
</svg>
